{"title":"Il Casanova Di Federico Fellini [1976] 720p BRRip H264 AC3 - COD","uid":7861832,"size":2825210177,"categoryP":"video","categoryS":"hd___movies","magnet":"?xt=urn:btih:b67daeb3c27022fce588ac6a6eef71322cd405d5&amp;dn=Il+Casanova+Di+Federico+Fellini+%5B1976%5D+720p+BRRip+H264+AC3+-+COD&amp;tr=udp%3A%2F%2Ftracker.openbittorrent.com%3A80&amp;tr=udp%3A%2F%2Fopen.demonii.com%3A1337&amp;tr=udp%3A%2F%2Ftracker.coppersurfer.tk%3A6969&amp;tr=udp%3A%2F%2Fexodus.desync.com%3A6969","seeders":1,"leechers":1,"uploader":"CODYBOSS1969","files":13,"time":1353951445,"description":"General\nComplete name                            : Il Casanova Di Federico Fellini [1976] 720p BRRip H264 AC3 - CODY.mp4\nFormat                                   : MPEG-4\nFormat profile                           : Base Media\nCodec ID                                 : isom\nFile size                                : 2.62 GiB\nDuration                                 : 2h 34mn\nOverall bit rate mode                    : Variable\nOverall bit rate                         : 2 433 Kbps\nEncoded date                             : UTC 2012-10-22 17:42:30\n\nVideo\nID                                       : 1\nFormat                                   : AVC\nFormat/Info                              : Advanced Video Codec\nFormat profile                           : &lt;a class=&quot;__cf_email__&quot; href=&quot;/cdn-cgi/l/email-protection&quot; data-cfemail=&quot;d59dbcb2bd9599e1fbe4&quot;&gt;[email&amp;#160;protected]&lt;/a&gt;&lt;script cf-hash='f9e31' type=&quot;text/javascript&quot;&gt;\n/* &lt;![CDATA[ */!function(){try{var t=&quot;currentScript&quot;in document?document.currentScript:function(){for(var t=document.getElementsByTagName(&quot;script&quot;),e=t.length;e--;)if(t[e].getAttribute(&quot;cf-hash&quot;))return t[e]}();if(t&amp;&amp;t.previousSibling){var e,r,n,i,c=t.previousSibling,a=c.getAttribute(&quot;data-cfemail&quot;);if(a){for(e=&quot;&quot;,r=parseInt(a.substr(0,2),16),n=2;a.length-n;n+=2)i=parseInt(a.substr(n,2),16)^r,e+=String.fromCharCode(i);e=document.createTextNode(e),c.parentNode.replaceChild(e,c)}}}catch(u){}}();/* ]]&gt; */&lt;/script&gt;\nFormat settings, CABAC                   : Yes\nFormat settings, ReFrames                : 5 frames\nCodec ID                                 : avc1\nCodec ID/Info                            : Advanced Video Coding\nDuration                                 : 2h 34mn\nBit rate mode                            : Variable\nBit rate                                 : 2 110 Kbps\nMaximum bit rate                         : 20.0 Mbps\nWidth                                    : 1 280 pixels\nHeight                                   : 688 pixels\nDisplay aspect ratio                     : 1.860\nFrame rate mode                          : Constant\nFrame rate                               : 24.000 fps\nColor space                              : YUV\nChroma subsampling                       : 4:2:0\nBit depth                                : 8 bits\nScan type                                : Progressive\nBits/(Pixel*Frame)                       : 0.100\nStream size                              : 2.27 GiB (87%)\nWriting library                          : x264 core 125 r2208 d9d2288\nEncoding settings                        : rc=2pass\nColor primaries                          : Generic film\n\nAudio\nID                                       : 2\nFormat                                   : AC-3\nFormat/Info                              : Audio Coding 3\nMode extension                           : CM (complete main)\nCodec ID                                 : ac-3\nDuration                                 : 2h 34mn\nBit rate mode                            : Constant\nBit rate                                 : 320 Kbps\nChannel(s)                               : 1 channel\nChannel positions                        : Front: C\nSampling rate                            : 48.0 KHz\nBit depth                                : 16 bits\nCompression mode                         : Lossy\nStream size                              : 353 MiB (13%)\n\nAudio language                           : Italian [mostly], French, German\n                                           English, Czech, Latin, Hungarian\n\nIMDB link:                                &lt;a href=&quot; http://www.imdb.com/title/tt0074291/&quot; rel=&quot;nofollow&quot; target=&quot;_NEW&quot;&gt; http://www.imdb.com/title/tt0074291/&lt;/a&gt;\n\nSubtitles included                       : English[VobSub], Italian[Vobsub], \n                                           French[Vobsub], Romanian[.srt=default]\n\nPlease seed at least 1,5:1. This way this torrent has a chance to survive !\n\nThanks. Enjoy !","torrent":{"xt":"urn:btih:b67daeb3c27022fce588ac6a6eef71322cd405d5","amp;dn":"Il+Casanova+Di+Federico+Fellini+%5B1976%5D+720p+BRRip+H264+AC3+-+COD","amp;tr":["udp%3A%2F%2Ftracker.openbittorrent.com%3A80","udp%3A%2F%2Fopen.demonii.com%3A1337","udp%3A%2F%2Ftracker.coppersurfer.tk%3A6969","udp%3A%2F%2Fexodus.desync.com%3A6969"],"infoHash":"b67daeb3c27022fce588ac6a6eef71322cd405d5","infoHashBuffer":{"type":"Buffer","data":[182,125,174,179,194,112,34,252,229,136,172,106,110,239,113,50,44,212,5,213]},"announce":[],"urlList":[]}}